<mxfile host="app.diagrams.net" modified="2024-03-07T06:08:51.147Z" agent="Mozilla/5.0 (Windows NT 10.0; Win64; x64) AppleWebKit/537.36 (KHTML, like Gecko) Chrome/122.0.0.0 Safari/537.36" version="24.0.2" etag="nmKDQ9ZDKhv4uQhTF7H7" type="github">
  <diagram name="第 1 页" id="Ggw14JiGaz5KHwj1FmcD">
    <mxGraphModel>
      <root>
        <mxCell id="0" />
        <mxCell id="1" parent="0" />
      </root>
    </mxGraphModel>
  </diagram>
</mxfile>
